Coordinates
version=1
nRows=9
nColumns=63
inDegrees=yes

Units are S.I. units (second, meters, Newtons, ...)
If the header above contains a line with 'inDegrees', this indicates whether rotational values are in degrees (yes) or radians (no).

endheader
time	pelvis_tilt	pelvis_list	pelvis_rotation	pelvis_tx	pelvis_ty	pelvis_tz	hip_flexion_r	hip_adduction_r	hip_rotation_r	knee_angle_r	knee_angle_r_beta	ankle_angle_r	subtalar_angle_r	mtp_angle_r	hip_flexion_l	hip_adduction_l	hip_rotation_l	knee_angle_l	knee_angle_l_beta	ankle_angle_l	subtalar_angle_l	mtp_angle_l	L5_S1_Flex_Ext	L5_S1_Lat_Bending	L5_S1_axial_rotation	L4_L5_Flex_Ext	L4_L5_Lat_Bending	L4_L5_axial_rotation	L3_L4_Flex_Ext	L3_L4_Lat_Bending	L3_L4_axial_rotation	L2_L3_Flex_Ext	L2_L3_Lat_Bending	L2_L3_axial_rotation	L1_L2_Flex_Ext	L1_L2_Lat_Bending	L1_L2_axial_rotation	L1_T12_Flex_Ext	L1_T12_Lat_Bending	L1_T12_axial_rotation	Abs_r3	Abs_r2	Abs_r1	Abs_t1	Abs_t2	neck_flexion	neck_bending	neck_rotation	arm_flex_r	arm_add_r	arm_rot_r	elbow_flex_r	pro_sup_r	wrist_flex_r	wrist_dev_r	arm_flex_l	arm_add_l	arm_rot_l	elbow_flex_l	pro_sup_l	wrist_flex_l	wrist_dev_l
      0.00000000	      2.15831327	     -4.66282523	     98.17463439	      0.25810443	      0.70738154	      0.86985133	      3.64561413	      3.94007794	     -4.16763966	      8.18114554	      0.14278793	     29.90363704	     -0.11468100	      0.00000000	      6.36045489	     -0.83169632	      5.30467078	     12.18184279	      0.21261327	     31.76161337	     -9.33280632	      0.00000000	      0.00894345	      0.43657105	      0.16859797	      0.01660889	      0.58063949	      0.17913534	      0.01469320	      1.06147885	      0.17913534	      0.01022147	      1.06147885	      0.14752322	      0.00830489	      0.89025568	      0.13698585	      0.00511029	      0.67624855	      0.12644848	      0.06388219	      4.93857901	      0.93769131	      0.00000000	      0.00000000	     14.25765168	     -2.33398789	      2.66233721	     14.96796260	    -16.21065996	     59.07173161	     51.88096458	     54.63251610	      3.18728450	      4.17075697	     19.52135741	    -16.30974306	     67.61324001	     56.06977645	     44.24438894	      1.91313152	      2.84501823
      0.01694915	      1.72577005	     -4.16993120	     98.07336396	      0.25928412	      0.70798087	      0.86668102	      2.45194201	      3.72515179	     -2.60803043	      7.52588850	      0.13135153	     29.57582167	     -1.10370624	      0.00000000	      5.39215253	     -0.60456900	      4.33997664	     11.64150046	      0.20318251	     32.65269425	     -7.89775986	      0.00000000	      0.00753045	      0.37381938	     -0.01654808	      0.01398481	      0.49717978	     -0.01758234	      0.01237178	      0.90890444	     -0.01758234	      0.00860656	      0.90890444	     -0.01447957	      0.00699278	      0.76229248	     -0.01344532	      0.00430290	      0.57904622	     -0.01241106	      0.05378929	      4.22871959	     -0.09203547	      0.00000000	      0.00000000	     12.92257434	     -1.55025148	      3.81555886	     15.51240582	    -15.46665253	     60.34180045	     50.95850851	     64.43887267	      2.83524769	      4.63081511	     18.61303216	    -16.73692617	     65.77425381	     56.11499734	     45.67863624	      4.13372814	      8.91765835
      0.03389831	      1.36269914	     -3.74996834	     98.01790117	      0.26023848	      0.70842460	      0.86432488	      1.45492188	      3.59028032	     -0.33471713	      6.94191421	      0.12115926	     28.98898871	     -3.43472215	      0.00000000	      4.63455730	     -0.44677569	      3.03700562	     11.30468744	      0.19730402	     33.44627241	     -6.09515758	      0.00000000	     -0.01775144	      0.31796785	     -0.08546581	     -0.03296620	      0.42289724	     -0.09080743	     -0.02916384	      0.77310703	     -0.09080743	     -0.02028812	      0.77310703	     -0.07478259	     -0.01648399	      0.64840004	     -0.06944097	     -0.01014317	      0.49253220	     -0.06409936	     -0.12679676	      3.59691591	     -0.47533522	      0.00000000	      0.00000000	     12.33711301	     -1.13122016	      4.03215680	     15.36128770	    -14.81860451	     59.38724943	     50.45676915	     75.81839912	      3.85644879	      5.70832071	     18.15010012	    -16.73502755	     63.96497894	     55.75177132	     50.33730228	      6.22772927	     12.82314246
      0.05084746	      1.15372615	     -3.51070197	     97.93325132	      0.26092829	      0.70860308	      0.86230605	      0.74149779	      3.55540661	      1.89851967	      6.41283332	      0.11192506	     28.29347903	     -5.91507225	      0.00000000	      4.12431680	     -0.37536729	      2.05177526	     11.04886114	      0.19283901	     34.00342893	     -4.79177865	      0.00000000	     -0.02320860	      0.28158432	     -0.09687311	     -0.04310069	      0.37450715	     -0.10292768	     -0.03812941	      0.68464412	     -0.10292768	     -0.02652511	      0.68464412	     -0.08476397	     -0.02155151	      0.57420675	     -0.07870940	     -0.01326139	      0.43617411	     -0.07265483	     -0.16577672	      3.18533816	     -0.53877917	      0.00000000	      0.00000000	     11.97638310	     -0.92675224	      3.82679296	     15.39690473	    -14.58224260	     59.86890270	     50.26114935	     82.68674505	      3.36936162	      5.76791589	     17.84288039	    -16.56086571	     62.56623503	     55.15377399	     54.53616388	      8.12820784	     14.08157045
      0.06779661	      1.07890393	     -3.39166518	     97.88956055	      0.26111817	      0.70863746	      0.86097587	      0.37717765	      3.51089244	      2.38369685	      6.21730779	      0.10851249	     28.16159721	     -6.18385068	      0.00000000	      3.81560960	     -0.34477423	      1.68299354	     10.85853517	      0.18951719	     34.26921183	     -4.33114577	      0.00000000	     -0.02983300	      0.26658484	     -0.04937109	     -0.05540286	      0.35455784	     -0.05245678	     -0.04901264	      0.64817438	     -0.05245678	     -0.03409614	      0.64817438	     -0.04319970	     -0.02770292	      0.54361981	     -0.04011401	     -0.01704658	      0.41293992	     -0.03702831	     -0.21309413	      3.01566105	     -0.27458716	      0.00000000	      0.00000000	     11.99715597	     -0.97988167	      3.20150287	     15.29922418	    -14.64445692	     60.31596878	     50.22194079	     85.47419177	      2.76026995	      5.77758300	     17.85531946	    -16.27722294	     62.16782252	     54.79763039	     54.76055406	      7.52471458	     14.53380272
      0.08474576	      1.10782092	     -3.36252274	     97.97805995	      0.26095437	      0.70859420	      0.86022517	      0.19790002	      3.54084435	      2.46434486	      6.07157654	      0.10596900	     28.03197434	     -6.25002897	      0.00000000	      3.70507178	     -0.37404527	      1.60024145	     10.79201817	      0.18835625	     34.35270842	     -4.17756805	      0.00000000	     -0.03748593	      0.26687258	     -0.00304075	     -0.06961512	      0.35494053	     -0.00323080	     -0.06158563	      0.64887398	     -0.00323080	     -0.04284267	      0.64887398	     -0.00266066	     -0.03480943	      0.54420656	     -0.00247061	     -0.02141946	      0.41338562	     -0.00228056	     -0.26775823	      3.01891597	     -0.01691174	      0.00000000	      0.00000000	     12.22820141	     -1.06303496	      2.55208921	     15.08587910	    -14.76118474	     60.38412827	     50.11981901	     85.95810246	      2.66054540	      5.71477344	     17.94903818	    -15.84435649	     61.74558521	     54.25667253	     54.83576144	      7.03016040	     14.31818099
      0.10169492	      1.27913564	     -3.41397323	     97.82461634	      0.26119817	      0.70840891	      0.85971452	      0.29536683	      3.64399149	      1.47333703	      6.22910466	      0.10871839	     28.36138596	     -4.52141896	      0.00000000	      3.77975214	     -0.78360829	     -0.98601870	     10.96002243	      0.19128848	     35.17913096	     -0.77681853	      0.00000000	     -0.04057778	      0.28264147	      0.11546346	     -0.07535699	      0.37591316	      0.12267993	     -0.06666523	      0.68721447	      0.12267993	     -0.04637634	      0.68721447	      0.10103053	     -0.03768053	      0.57636249	      0.09381406	     -0.02318614	      0.43781164	      0.08659760	     -0.28984302	      3.19729686	      0.64217315	      0.00000000	      0.00000000	     12.41222425	     -1.42521385	      1.42567461	     14.55812741	    -14.94334106	     59.82015824	     50.08627754	     86.84669694	      1.83229563	      4.83606269	     18.07616937	    -15.49749647	     61.69709169	     54.14499451	     54.25906604	      5.57934039	     13.84285574
      0.11864407	      1.45177987	     -3.42211532	     98.04694008	      0.26060536	      0.70832849	      0.85947993	      0.16960734	      3.91737122	      3.43474122	      5.94176662	      0.10370339	     27.43905577	     -7.60368460	      0.00000000	      3.74968299	     -0.79122160	      0.73107337	     10.89278095	      0.19011489	     34.69285972	     -2.88572627	      0.00000000	     -0.05264547	      0.30527748	      0.13919240	     -0.09776791	      0.40601905	      0.14789192	     -0.08649125	      0.74225167	      0.14789192	     -0.06016851	      0.74225167	      0.12179335	     -0.04888659	      0.62252184	      0.11309382	     -0.03008162	      0.47287482	      0.10439430	     -0.37604135	      3.45335993	      0.77414636	      0.00000000	      0.00000000	     12.49946008	     -1.65986405	      0.54814714	     14.21465252	    -15.14270944	     59.49562381	     50.03261671	     86.74555041	      1.11824565	      3.89796973	     18.16087011	    -15.10438119	     61.38128150	     53.73863127	     55.98783849	      5.72951395	     13.05456613
      0.13559322	      1.69263803	     -3.48687565	     98.18130880	      0.26041033	      0.70823439	      0.85981020	      0.30904081	      4.15664529	      3.40914514	      5.98722982	      0.10449687	     27.20972153	     -7.78856270	      0.00000000	      3.95525582	     -1.17734681	     -0.75352877	     11.16877684	      0.19493193	     35.11547766	     -0.68299704	      0.00000000	     -0.06394194	      0.33634338	      0.14196961	     -0.11874658	      0.44733669	      0.15084271	     -0.10505021	      0.81778528	      0.15084271	     -0.07307924	      0.81778528	      0.12422341	     -0.05937649	      0.68587141	      0.11535031	     -0.03653643	      0.52099589	      0.10647721	     -0.45673089	      3.80478353	      0.78959237	      0.00000000	      0.00000000	     12.55081049	     -1.74957539	      0.10061576	     14.07802276	    -15.24974358	     59.27798483	     49.86395353	     86.72150465	      0.59043594	      2.60071293	     18.17316158	    -14.82001220	     61.12007979	     53.47953353	     56.81850158	      6.02653046	     12.73209414
